<?xml version="1.0" standalone="no"?>
<!DOCTYPE svg PUBLIC "-//W3C//DTD SVG 20010904//EN"
 "http://www.w3.org/TR/2001/REC-SVG-20010904/DTD/svg10.dtd">
<svg version="1.0" xmlns="http://www.w3.org/2000/svg"
 width="2048.000000pt" height="2048.000000pt" viewBox="0 0 2048.000000 2048.000000"
 preserveAspectRatio="xMidYMid meet">

<g transform="translate(0.000000,2048.000000) scale(0.100000,-0.100000)"
fill="#000000" stroke="none">
<path d="M13832 13294 c-108 -54 -162 -179 -128 -296 44 -151 209 -224 356
-156 183 83 193 347 18 447 -72 42 -168 44 -246 5z m206 -20 c81 -33 131 -111
132 -202 0 -127 -92 -221 -218 -222 -129 0 -224 93 -224 220 0 91 52 169 137
206 41 18 128 17 173 -2z"/>
<path d="M13774 13159 c-8 -14 5 -29 27 -29 17 0 19 -7 19 -66 0 -57 2 -65 18
-62 14 3 18 16 20 65 3 55 5 62 25 65 12 2 22 10 22 18 0 12 -14 15 -63 16
-34 1 -65 -2 -68 -7z"/>
<path d="M13930 13085 c0 -69 3 -85 15 -85 11 0 15 13 16 53 l1 52 17 -50 c10
-27 21 -49 24 -47 4 1 11 2 16 2 5 0 15 21 22 48 l13 47 5 -50 c4 -35 10 -50
21 -50 12 0 15 16 15 80 0 79 0 80 -25 80 -21 0 -27 -7 -39 -47 -8 -27 -18
-48 -21 -48 -4 0 -10 16 -13 36 -7 43 -23 64 -48 64 -17 0 -19 -9 -19 -85z"/>
<path d="M9826 13300 c-1028 -64 -1978 -341 -2630 -767 -232 -151 -425 -308
-538 -436 -32 -36 -58 -69 -58 -72 0 -4 -20 -30 -43 -58 -140 -166 -262 -410
-312 -623 -40 -171 -38 -404 5 -584 105 -440 391 -803 905 -1147 393 -263 901
-477 1450 -609 88 -21 162 -42 165 -45 7 -8 229 -52 395 -78 324 -51 579 -71
970 -78 351 -5 613 7 925 42 237 28 649 99 660 114 3 4 43 16 90 26 222 47
597 167 849 272 481 200 846 435 1132 729 249 257 390 512 459 834 22 101 25
326 5 441 -82 490 -428 939 -1005 1304 -122 77 -454 243 -620 310 -534 216
-1107 348 -1780 410 -196 19 -822 27 -1024 15z m869 -303 l470 -3 90 -27 c489
-149 788 -544 787 -1042 -1 -349 -154 -655 -432 -862 -74 -55 -245 -136 -354
-168 -130 -37 -278 -46 -689 -43 -202 2 -367 2 -367 0 0 -1 -15 -80 -34 -175
-19 -94 -65 -327 -102 -517 -37 -190 -71 -347 -74 -350 -4 -3 -30 -124 -59
-270 -29 -146 -57 -286 -63 -312 l-10 -48 -694 0 c-634 0 -694 1 -694 16 0 9
9 55 20 103 10 47 33 149 50 226 16 77 32 149 35 160 2 11 16 72 29 135 38
174 131 599 280 1275 131 594 180 819 230 1055 78 365 178 818 185 835 9 22
-101 21 1396 12z m-1505 -30 c0 -17 -49 -239 -53 -244 -2 -2 -307 -2 -678 -1
l-674 3 130 52 c148 59 386 140 520 177 87 24 101 25 423 25 272 1 332 -1 332
-12z m2895 -21 c151 -43 308 -96 455 -153 198 -77 218 -72 -264 -73 l-428 0
-60 56 c-82 75 -155 129 -230 170 l-63 34 235 0 236 0 119 -34z m-3010 -526
c-4 -12 -17 -69 -29 -128 l-22 -107 -1063 -3 -1062 -2 33 28 c58 49 119 95
217 164 l96 67 918 1 918 0 -6 -20z m4290 -55 c89 -63 138 -100 230 -177 5 -4
-325 -8 -733 -8 -586 0 -743 3 -746 13 -27 89 -60 189 -72 215 l-14 32 614 0
614 0 107 -75z m-4418 -527 c-3 -13 -16 -71 -29 -130 l-23 -108 -1222 0 c-763
0 -1223 4 -1223 9 0 12 62 119 112 194 l39 57 1175 0 1176 0 -5 -22z m5004
-66 c31 -48 66 -106 78 -129 l21 -43 -976 0 -976 0 7 28 c13 49 34 176 35 205
l0 27 878 0 877 0 56 -88z m-5131 -495 c0 -8 -11 -65 -25 -127 -14 -62 -25
-115 -25 -117 0 -1 -552 -3 -1226 -3 l-1227 0 6 113 c3 61 8 120 12 130 7 16
75 17 1246 17 1033 0 1239 -2 1239 -13z m5335 2 c4 -5 10 -64 13 -130 l7 -119
-1225 0 -1225 0 38 31 c34 28 104 107 170 193 l28 36 1094 0 c759 0 1096 -3
1100 -11z m-5473 -614 c3 -3 -2 -40 -12 -83 -9 -42 -23 -103 -29 -134 l-12
-58 -1060 0 -1059 0 -26 53 c-34 66 -94 206 -94 218 0 9 2282 13 2292 4z
m5418 -10 c0 -17 -95 -233 -112 -252 -8 -11 -372 -13 -1889 -13 -1033 0 -1880
4 -1883 8 -2 4 7 67 21 140 l25 132 1919 0 c1704 0 1919 -2 1919 -15z m-5543
-579 c2 -1 -9 -60 -24 -129 l-28 -127 -724 0 -724 0 -46 37 c-25 21 -48 40
-51 43 -3 3 -21 17 -40 29 -43 30 -160 142 -155 150 3 6 1786 3 1792 -3z
m5173 3 c0 -13 -110 -117 -210 -199 l-74 -60 -1673 0 c-1128 0 -1673 3 -1673
10 0 9 23 124 46 227 l4 23 1783 3 c980 1 1785 3 1790 5 4 1 7 -3 7 -9z
m-5304 -576 c-3 -10 -15 -61 -26 -113 -11 -52 -23 -103 -26 -112 -5 -16 -19
-18 -109 -18 -93 0 -114 4 -197 34 -180 65 -508 208 -508 222 0 2 196 4 436 4
410 0 435 -1 430 -17z m4409 -38 c-113 -55 -317 -139 -439 -181 l-70 -24
-1173 0 c-1166 0 -1173 0 -1173 20 0 11 4 20 8 20 5 0 17 46 27 103 10 56 19
105 22 110 2 4 658 7 1456 6 l1452 -1 -110 -53z"/>
<path d="M10965 12769 c-686 -380 -975 -539 -981 -539 -12 0 -347 -192 -367
-211 -11 -10 -24 -19 -27 -19 -10 0 -333 -180 -345 -191 -7 -7 1 -9 25 -5 19
3 94 8 165 11 72 3 301 14 510 25 209 11 403 20 431 20 l50 0 76 -192 c42
-106 123 -310 179 -453 56 -143 105 -264 109 -268 4 -5 24 63 45 150 20 87 57
241 81 343 54 228 107 455 219 940 48 206 97 414 109 463 13 48 20 87 17 87
-4 0 -137 -72 -296 -161z"/>
<path d="M6283 8413 c-10 -4 -13 -139 -13 -629 l0 -624 135 0 135 0 0 490 0
490 546 0 547 0 -5 -44 c-7 -60 -41 -111 -93 -141 l-43 -26 -393 -2 -394 -2
-3 -132 -3 -133 406 0 c383 0 409 1 467 21 117 39 222 129 273 234 47 97 55
154 47 335 l-7 165 -795 2 c-437 1 -801 -1 -807 -4z"/>
<path d="M8075 8410 c-2 -4 -5 -286 -5 -626 l-1 -619 135 -3 136 -3 0 491 0
490 546 0 546 0 -7 -37 c-9 -48 -37 -102 -68 -131 -51 -47 -73 -50 -473 -44
l-374 5 0 -137 0 -136 184 0 184 0 100 -107 c54 -60 114 -126 133 -148 19 -22
64 -71 100 -110 36 -38 79 -85 95 -103 l29 -33 177 3 178 3 -114 126 c-62 69
-115 130 -117 136 -2 5 -32 41 -66 79 -34 38 -78 87 -97 108 l-35 40 71 18
c169 43 298 172 343 343 12 47 14 93 8 231 l-6 171 -799 0 c-439 0 -801 -3
-803 -7z"/>
<path d="M9884 8411 c-2 -2 -4 -285 -4 -628 l0 -623 140 0 140 0 0 628 0 627
-136 0 c-75 0 -138 -2 -140 -4z"/>
<path d="M10414 8412 c-5 -4 -9 -253 -9 -630 l0 -622 138 0 137 0 0 490 0 490
491 0 c475 0 493 -1 524 -20 58 -36 77 -68 400 -700 l130 -255 163 -3 162 -2
-69 132 c-38 73 -104 203 -148 288 -222 432 -327 623 -375 681 -22 27 -109 89
-147 105 -109 48 -101 47 -762 50 -344 1 -629 -1 -635 -4z"/>
<path d="M13109 8406 c-191 -29 -338 -157 -395 -345 -11 -34 -14 -141 -14
-473 l0 -428 735 0 735 0 0 140 0 140 -597 2 -598 3 0 105 0 105 513 3 512 2
0 135 0 135 -516 0 -516 0 7 38 c11 59 42 105 93 137 l47 30 527 3 528 3 0
133 0 133 -52 7 c-93 11 -927 5 -1009 -8z"/>
<path d="M11148 7953 c-2 -16 -2 -200 0 -410 l2 -383 135 0 135 0 0 410 0 410
-134 0 -135 0 -3 -27z"/>
</g>
</svg>
